<svg id="Layer_1" data-name="Layer 1" xmlns="http://www.w3.org/2000/svg" viewBox="0 0 24 24"><title>bus</title><path d="M4,16V6A3.1,3.1,0,0,1,6,2.81,17.25,17.25,0,0,1,12,2a17.25,17.25,0,0,1,6,.8A3.1,3.1,0,0,1,20,6V16a2.94,2.94,0,0,1-1,2.25V20a1,1,0,0,1-1,1H17a1,1,0,0,1-.73-.28A.92.92,0,0,1,16,20V19H8v1a.92.92,0,0,1-.3.7A1,1,0,0,1,7,21H6a1,1,0,0,1-1-1V18.23A2.94,2.94,0,0,1,4,16Zm14-5V6H6v5ZM6.42,16.57A1.42,1.42,0,0,0,7.5,17a1.42,1.42,0,0,0,1.08-.45,1.53,1.53,0,0,0,0-2.11A1.42,1.42,0,0,0,7.5,14a1.42,1.42,0,0,0-1.08.45,1.53,1.53,0,0,0,0,2.11Zm9,0a1.53,1.53,0,0,0,2.16,0,1.53,1.53,0,0,0,0-2.11,1.53,1.53,0,0,0-2.16,0,1.53,1.53,0,0,0,0,2.11Z"/></svg>