<svg id="Layer_1" data-name="Layer 1" xmlns="http://www.w3.org/2000/svg" viewBox="0 0 24 24"><title>demographics</title><path d="M5.16,13.36A12.2,12.2,0,0,1,8,13a12.2,12.2,0,0,1,2.86.38,9,9,0,0,1,2.84,1.22A2.35,2.35,0,0,1,15,16.5V19H1V16.5A2.35,2.35,0,0,1,2.3,14.58,9.31,9.31,0,0,1,5.16,13.36Zm4.95-3.23A2.81,2.81,0,0,1,8,11a2.88,2.88,0,0,1-2.11-.89,2.94,2.94,0,0,1,0-4.22A2.88,2.88,0,0,1,8,5a2.81,2.81,0,0,1,2.09.89,3,3,0,0,1,0,4.22Zm8,0a2.94,2.94,0,0,1-4.22,0,2.94,2.94,0,0,1,0-4.22,2.94,2.94,0,0,1,4.22,0,2.94,2.94,0,0,1,0,4.22ZM16,13a12.2,12.2,0,0,1,2.86.38,9.31,9.31,0,0,1,2.86,1.22A2.35,2.35,0,0,1,23,16.5V19H17V16.5A4.15,4.15,0,0,0,15,13,7.17,7.17,0,0,1,16,13Z"/></svg>