<svg id="Layer_1" data-name="Layer 1" xmlns="http://www.w3.org/2000/svg" viewBox="0 0 24 24"><title>location</title><path d="M7.05,4.05A6.73,6.73,0,0,1,12,2a6.73,6.73,0,0,1,4.95,2A6.73,6.73,0,0,1,19,9a9.37,9.37,0,0,1-.73,3.33,20.59,20.59,0,0,1-1.76,3.52q-1,1.64-2,3.07t-1.71,2.27L12,22l-.75-.87q-.47-.54-1.69-2.16a36,36,0,0,1-2.13-3.14,22.72,22.72,0,0,1-1.66-3.45A9.48,9.48,0,0,1,5,9,6.73,6.73,0,0,1,7.05,4.05Zm3.19,6.7a2.49,2.49,0,0,0,3.52,0,2.49,2.49,0,0,0,0-3.52,2.49,2.49,0,0,0-3.52,0,2.49,2.49,0,0,0,0,3.52Z"/></svg>