<svg id="Layer_1" data-name="Layer 1" xmlns="http://www.w3.org/2000/svg" viewBox="0 0 132 37"><defs><style>.cls-1{fill:#ff7800;}.cls-2{fill:#787878;}</style></defs><title>logo</title><path class="cls-1" d="M40.65,5,36.26,9.36l4.39,4.39L45,9.36ZM0,18.13,18.13,36.26,36.26,18.13,18.13,0Zm18.13,4.39-4.39-4.39,4.39-4.39,4.39,4.39Z"/><path class="cls-2" d="M51,13.69H47V24.87h2.5V21.75H51a5.88,5.88,0,0,0,3.69-1,3.64,3.64,0,0,0,1.21-3,3.81,3.81,0,0,0-1.18-3.07,5.74,5.74,0,0,0-3.75-1Zm.22,5.9H49.5V15.83h1.42a3.21,3.21,0,0,1,1.82.41,1.56,1.56,0,0,1,.58,1.38,2.15,2.15,0,0,1-.45,1.47,2.23,2.23,0,0,1-1.7.5Zm14.09,5.28V22.65H60.5v-9H58V24.87Zm12.36,0L72.79,13.69H70.38L65.54,24.87H68.2l1-2.42h4.69l1,2.42ZM73,20.26h-2.8L71.59,17Zm13.84.62-5.49-7.2H79V24.87h2.5v-7l5.33,7h2.5V13.69h-2.5Zm6.46-7.2h-2.7l3.9,11.18h1.86l2.43-7.78,2.45,7.78h1.86L107,13.69h-2.7L102,20.12l-2-6.43H97.47l-2,6.43ZM108,24.87h2.5V13.69H108Zm8.6-9.25a4.92,4.92,0,0,1,3,1.1l1.26-1.82a6,6,0,0,0-2-1.09,6.87,6.87,0,0,0-2.24-.38,4.6,4.6,0,0,0-2.86.86,2.9,2.9,0,0,0-1.14,2.46,2.85,2.85,0,0,0,.9,2.34,7.16,7.16,0,0,0,2.86,1.21,5.43,5.43,0,0,1,1.65.6.93.93,0,0,1,.42.8,1,1,0,0,1-.39.8,1.75,1.75,0,0,1-1.08.3,5.29,5.29,0,0,1-3.34-1.58L112.2,23A6.87,6.87,0,0,0,117,25a4.5,4.5,0,0,0,3-.94,3,3,0,0,0,1.13-2.44,2.91,2.91,0,0,0-.88-2.29,5.72,5.72,0,0,0-2.47-1.18,8,8,0,0,1-2-.68.89.89,0,0,1-.44-.78,1,1,0,0,1,.36-.78,1.5,1.5,0,0,1,1-.3Zm6.4-1.94V24.87h8.24V22.66H125.5V20.34h5V18.22h-5v-2.3h5.57V13.69Z"/></svg>