<?xml version="1.0" encoding="utf-8"?>
<!-- Generator: Adobe Illustrator 22.1.0, SVG Export Plug-In . SVG Version: 6.00 Build 0)  -->
<svg version="1.1" id="Logos" xmlns="http://www.w3.org/2000/svg" xmlns:xlink="http://www.w3.org/1999/xlink" x="0px" y="0px"
	 viewBox="0 0 60 60" style="enable-background:new 0 0 60 60;" xml:space="preserve">
<title>logo2</title>
<style type="text/css">
	.st0{opacity:0.1;enable-background:new    ;}
	.st1{fill:#FF5722;}
	.st2{fill:#D84315;}
	.st3{fill:#FF7811;}
	.st4{fill:#E6600B;}
	.st5{fill:#FF9800;}
	.st6{fill:#F57C00;}
	.st7{fill:#424242;}
	.st8{fill:#FFFFFF;}
</style>
<path class="st0" d="M60,30c0,16.6-13.4,30-30,30S0,46.6,0,30S13.4,0,30,0S60,13.4,60,30z M30,1C14,1,1,14,1,30s13,29,29,29
	s29-13,29-29S46,1,30,1z"/>
<path class="st1" d="M28.5,50.2L9.8,31.5c-0.9-0.9-0.9-2.2,0-3.1L28.5,9.8c0.9-0.9,2.2-0.9,3.1,0l18.7,18.7c0.9,0.9,0.9,2.2,0,3.1
	L31.5,50.2C30.7,51.1,29.3,51.1,28.5,50.2z"/>
<path class="st2" d="M26,47.8l2.5,2.5c0.9,0.9,2.2,0.9,3.1,0l2.5-2.5V30h-8V47.8z"/>
<circle class="st3" cx="30" cy="30" r="15.4"/>
<path class="st4" d="M26,44.9c2.6,0.7,5.4,0.7,8,0V30h-8V44.9z"/>
<circle class="st5" cx="30" cy="30" r="9.7"/>
<path class="st6" d="M26,38.8c2.5,1.1,5.5,1.1,8,0V30h-8V38.8z"/>
<circle class="st7" cx="30" cy="30" r="4"/>
<path class="st8" d="M31.4,28.6c0.8,0.8,0.8,2,0,2.8c-0.8,0.8-2,0.8-2.8,0c-0.8-0.8-0.8-2,0-2.8C29.4,27.8,30.6,27.8,31.4,28.6z"/>
</svg>
