<svg id="Layer_1" data-name="Layer 1" xmlns="http://www.w3.org/2000/svg" viewBox="0 0 24 24"><title>scenario</title><path d="M19,3a1.93,1.93,0,0,1,1.41.61A1.93,1.93,0,0,1,21,5V19a2.08,2.08,0,0,1-2,2H5a1.93,1.93,0,0,1-1.41-.61A1.93,1.93,0,0,1,3,19V5a1.93,1.93,0,0,1,.61-1.41A1.93,1.93,0,0,1,5,3H9.19a3.13,3.13,0,0,1,1.08-1.45,3,3,0,0,1,3.47,0A3.13,3.13,0,0,1,14.81,3ZM17,9V7H7V9Zm0,4V11H7v2Zm-3,4V15H7v2ZM12.7,3.28A1,1,0,0,0,11,4a1,1,0,0,0,.28.73,1,1,0,0,0,1.41,0A1,1,0,0,0,13,4,1,1,0,0,0,12.7,3.28Z"/></svg>
