<svg id="Layer_1" data-name="Layer 1" xmlns="http://www.w3.org/2000/svg" viewBox="0 0 24 24"><title>search</title><path d="M15.52,14l5,5L19,20.48l-5-5v-.8l-.28-.28A6.22,6.22,0,0,1,9.52,16,6.32,6.32,0,0,1,4.9,14.11,6.21,6.21,0,0,1,3,9.52,6.29,6.29,0,0,1,4.9,4.9,6.28,6.28,0,0,1,9.52,3a6.21,6.21,0,0,1,4.59,1.9A6.33,6.33,0,0,1,16,9.52a6.22,6.22,0,0,1-1.55,4.22l.28.28ZM6.33,12.7A4.34,4.34,0,0,0,9.52,14,4.48,4.48,0,0,0,14,9.52,4.48,4.48,0,0,0,9.52,5,4.48,4.48,0,0,0,5,9.52,4.34,4.34,0,0,0,6.33,12.7Z"/></svg>