<?xml version="1.0" encoding="UTF-8" standalone="no"?>
<svg
   xmlns:dc="http://purl.org/dc/elements/1.1/"
   xmlns:cc="http://creativecommons.org/ns#"
   xmlns:rdf="http://www.w3.org/1999/02/22-rdf-syntax-ns#"
   xmlns:svg="http://www.w3.org/2000/svg"
   xmlns="http://www.w3.org/2000/svg"
   viewBox="0 0 999.71332 618.44135"
   height="618.44135"
   width="999.71332"
   xml:space="preserve"
   id="svg2"
   version="1.1"><metadata
     id="metadata8"><rdf:RDF><cc:Work
         rdf:about=""><dc:format>image/svg+xml</dc:format><dc:type
           rdf:resource="http://purl.org/dc/dcmitype/StillImage" /></cc:Work></rdf:RDF></metadata><defs
     id="defs6"><clipPath
       id="clipPath18"
       clipPathUnits="userSpaceOnUse"><path
         id="path16"
         d="M 0,463.831 H 749.786 V 0 H 0 Z" /></clipPath><clipPath
       id="clipPath74"
       clipPathUnits="userSpaceOnUse"><path
         id="path72"
         d="M 0,463.831 H 749.786 V 0 H 0 Z" /></clipPath><clipPath
       id="clipPath118"
       clipPathUnits="userSpaceOnUse"><path
         id="path116"
         d="M 27.5278,197.268 H 688.916 V 10.5925 H 27.5278 Z" /></clipPath></defs><g
     transform="matrix(1.3333333,0,0,-1.3333333,0,618.44133)"
     id="g10"><g
       id="g12"><g
         clip-path="url(#clipPath18)"
         id="g14"><g
           transform="translate(516.4755,184.1225)"
           id="g20"><path
             id="path22"
             style="fill:#ffffff;fill-opacity:1;fill-rule:nonzero;stroke:none"
             d="m 0,0 0.341,1.363 3.918,-0.171 7.154,20.954 c 0,0 2.044,1.447 3.748,2.213 1.703,0.767 3.236,2.726 3.236,2.726 0,0 4.685,14.31 5.452,15.843 0.766,1.532 3.236,9.624 3.747,12.435 0.511,2.81 1.704,8.858 1.704,11.583 0,2.726 2.554,14.48 2.554,16.183 0,1.704 1.108,8.433 1.193,10.392 0.086,1.958 2.896,13.457 2.896,13.457 0,0 -0.085,-2.3 2.555,-1.533 2.641,0.766 2.215,2.129 2.897,6.132 6.472,-0.17 9.198,2.385 10.22,6.814 1.022,4.429 -1.022,8.858 -3.918,13.628 7.751,0 17.801,7.836 19.078,13.457 1.279,5.622 -1.021,15.928 -4.769,19.42 2.011,1.877 1.133,3.431 -1.703,3.236 -1.181,-0.08 -3.918,-0.085 -2.385,4.77 1.533,4.855 1.362,12.18 -1.533,17.546 0,8.687 -11.498,17.546 -14.48,24.189 -2.981,6.644 -20.612,43.524 -26.915,50.593 -6.302,7.069 -17.29,17.205 -30.833,13.798 -2.81,0.17 -6.53,-0.307 -8.516,-0.852 -15.843,-4.343 -25.382,-13.713 -29.471,-22.996 -0.853,-1.937 -6.558,-8.177 -8.858,-12.436 -2.299,-4.259 -1.958,-7.24 -3.066,-14.479 -1.107,-7.24 -2.3,-11.328 -4.429,-14.991 -2.13,-3.662 -5.536,-14.99 -6.132,-16.694 -0.596,-1.703 -4.855,-3.322 -6.133,-6.132 -1.278,-2.811 0.171,-6.729 0.852,-8.858 -4.855,-4.429 -6.133,-10.817 -6.814,-12.095 -0.682,-1.277 -5.877,-13.457 -6.814,-15.842 -0.937,-2.385 -2.64,-13.202 -3.066,-14.48 -0.426,-1.277 -3.151,-8.687 -3.407,-10.561 -0.255,-1.874 -0.426,-6.048 -0.341,-8.176 0.086,-2.13 -0.426,-4.6 -1.022,-6.814 -0.596,-2.215 -3.237,-6.814 -3.407,-8.177 -0.17,-1.363 -2.385,-5.026 -2.385,-7.155 0,-2.129 -0.085,-5.451 -0.169,-6.644 -0.086,-1.192 -2.386,-4.854 -3.579,-6.302 -1.192,-1.448 -3.151,-4.174 -2.044,-5.621 1.108,-1.449 2.726,-5.026 1.705,-6.473 -1.023,-1.449 -1.108,-5.622 -3.579,-6.985 -2.469,-1.363 -4.513,-1.874 -5.621,-4.599 -1.107,-2.726 0.085,-9.54 0.17,-11.243 0.086,-1.704 1.448,-8.688 0.853,-9.881 -0.597,-1.192 -1.704,-2.555 -1.363,-4.939 0.34,-2.385 2.299,-8.603 1.874,-10.732 -0.426,-2.13 -0.426,-7.581 -0.511,-8.687 -0.086,-1.108 0.426,-2.13 0.851,-2.215 0.426,-0.085 3.067,1.021 3.067,1.021 l 25.892,-2.214 1.193,-6.643 65.924,-4.089 z" /></g><g
           transform="translate(257.4042,192.3334)"
           id="g24"><path
             id="path26"
             style="fill:#ffffff;fill-opacity:1;fill-rule:nonzero;stroke:none"
             d="m 0,0 c -0.083,0.413 1.486,23.868 2.147,24.281 0.661,0.413 1.569,0.908 1.652,1.982 0.083,1.074 1.982,2.808 2.147,4.625 0.165,1.817 1.405,2.478 1.652,2.973 0.248,0.496 2.973,7.103 5.616,9.746 2.642,2.643 0.661,3.386 0.991,5.451 0.33,2.065 -4.46,1.569 -5.451,1.817 -0.991,0.248 -5.45,0.661 -5.45,0.661 0,0 -0.083,4.129 0,5.946 0.082,1.817 0.33,7.268 0.495,7.929 0.165,0.66 -0.33,5.203 -0.661,6.111 -0.33,0.909 -0.743,3.882 -0.66,4.295 0.082,0.412 2.147,3.551 2.807,5.121 0.661,1.568 0,11.645 0.331,13.048 0.33,1.404 -1.9,5.038 -3.303,6.938 -1.405,1.899 -0.166,9.415 -0.166,10.076 0,0.661 -0.166,5.451 -0.166,7.433 0,1.982 -0.082,3.056 -0.33,4.79 -0.248,1.734 -0.495,5.038 -0.66,6.111 -0.166,1.074 0.165,1.57 0.66,2.974 0.496,1.404 0.578,2.973 0.165,4.79 -0.413,1.817 -0.495,1.982 -0.66,2.973 -0.165,0.991 -0.743,3.882 -0.826,5.616 -0.083,1.734 -0.33,3.551 -0.661,7.598 -0.33,4.047 -0.825,3.551 -0.825,4.791 0,1.238 -0.331,4.79 -0.496,7.432 -0.165,2.643 -1.487,7.764 -1.982,9.25 -0.496,1.487 -3.882,15.94 -4.295,17.179 -0.413,1.239 -1.156,2.147 -1.652,3.304 -0.495,1.156 -2.395,3.799 -2.973,4.294 -0.578,0.496 -1.404,1.404 -2.312,2.808 -0.908,1.404 -2.643,2.643 -4.295,3.634 -1.652,0.991 -3.304,1.487 -4.625,1.982 -1.321,0.496 -4.625,1.487 -5.451,1.817 -0.826,0.33 -3.799,0.661 -3.799,0.661 0,0 0.165,1.404 0.661,2.643 0.495,1.239 1.403,3.881 1.816,4.955 0.413,1.074 0.166,3.634 0.166,3.634 0,0 2.89,0.991 3.634,1.487 0.743,0.495 2.065,1.073 2.808,1.982 0.743,0.908 1.486,1.899 1.486,2.973 0,1.074 -0.66,2.147 -1.156,3.221 -0.495,1.074 0,0 -0.247,1.404 -0.248,1.404 0,0 -0.578,0.991 -0.578,0.991 -1.24,1.239 -3.139,1.982 -1.899,0.744 -2.808,2.312 -3.634,3.469 -0.826,1.156 -2.312,1.982 -3.303,2.478 -0.992,0.495 -3.964,0.082 -4.46,1.156 -0.496,1.073 -0.992,2.313 -1.652,2.973 -0.661,0.661 -3.882,3.304 -4.13,3.799 -0.248,0.496 -0.991,1.322 -0.991,1.322 0,0 -0.908,0.495 -1.486,0.99 -0.578,0.496 -2.726,-0.165 -4.873,0.827 -2.148,0.99 0,0 -1.074,0.825 -1.074,0.827 -2.064,3.387 -3.468,3.469 -1.405,0.083 -9.415,-2.395 -10.241,-2.147 -0.827,0.248 -2.891,0.908 -4.625,1.651 -1.735,0.744 -3.634,-0.082 -5.452,-0.33 -1.816,-0.248 -1.321,-0.413 -4.46,-0.33 -3.137,0.082 -3.715,-0.826 -4.955,-0.826 -1.238,0 -2.147,-0.743 -3.137,-1.322 -0.992,-0.578 -1.323,-1.155 -2.313,-1.817 -0.991,-0.66 -2.725,-1.568 -4.46,-2.642 -1.734,-1.074 -2.312,-5.946 -2.312,-6.442 0,-0.496 -1.653,-2.147 -1.653,-2.147 0,0 -1.899,-2.065 -1.981,-2.478 -0.083,-0.413 -0.331,-9.828 -0.661,-11.728 -0.33,-1.899 -1.57,-6.029 -1.652,-7.598 -0.083,-1.569 0.33,-8.094 0.33,-8.094 0,0 -1.817,1.404 -2.642,1.817 -0.826,0.413 -2.231,-1.404 -2.644,-2.147 -0.413,-0.743 -0.082,-4.377 -1.321,-6.607 -1.238,-2.23 -0.109,-8.6 -0.109,-8.6 0,0 -5.342,-1.202 -8.014,-1.87 -2.671,-0.668 -6.944,-3.071 -10.685,-4.541 -3.739,-1.469 -8.68,-3.873 -10.951,-5.342 -2.27,-1.469 -6.945,-4.407 -9.616,-5.609 -2.671,-1.202 -6.678,-4.274 -7.746,-5.076 -1.068,-0.801 -7.346,-8.28 -8.281,-9.082 -0.935,-0.801 -4.674,-2.67 -11.219,-15.225 -6.544,-12.554 -3.339,-35.927 -3.739,-38.197 -0.401,-2.271 0.267,-5.877 -0.268,-6.946 -0.534,-1.068 0.268,-2.804 0.268,-4.273 0,-1.469 -0.935,-5.877 -1.069,-6.945 -0.133,-1.069 0.267,-4.274 0.267,-5.343 0,-1.068 -0.534,-7.479 -0.801,-8.547 -0.267,-1.069 0.534,-2.404 1.069,-3.74 0.534,-1.335 0.667,-2.537 0.534,-3.473 -0.134,-0.934 0.267,-4.006 0.267,-4.006 0,0 0,-5.343 -0.267,-6.144 -0.268,-0.801 1.536,-4.607 1.336,-6.01 -0.202,-1.402 0.2,-11.619 0,-16.427 -0.202,-4.809 1.201,-18.832 1.201,-18.832 0,0 -0.601,-6.411 -0.801,-8.815 -0.2,-2.404 -2.004,-7.612 -2.004,-7.612 0,0 2.204,-8.615 2.004,-10.018 -0.2,-1.402 -1.202,-27.646 -1.603,-29.649 l 127.544,-0.838 c 0,0 0.579,2.147 0.496,2.973 -0.083,0.826 -1.074,4.873 -1.157,5.947 -0.083,1.073 1.157,6.276 0.826,7.102 -0.331,0.826 -0.578,14.371 -1.156,17.013 -0.578,2.644 -2.147,12.059 -2.147,12.059 l 2.312,1.981 c 0,0 2.973,5.451 2.973,5.947 0,0.495 3.387,16.27 3.469,16.848 0.083,0.578 1.734,13.297 1.982,19.491 0.248,6.194 -0.495,21.308 -0.826,22.134 -0.33,0.826 -0.825,4.46 -0.99,5.121 -0.166,0.66 1.651,4.79 1.981,5.615 0.331,0.827 3.469,8.92 3.965,10.572 0.495,1.652 0.33,9.085 0.825,11.563 0.496,2.477 1.569,7.267 2.148,8.589 0.578,1.321 1.321,1.073 1.652,0.165 0.33,-0.909 0.247,-1.9 0.165,-3.469 -0.083,-1.569 0.082,-2.312 0,-3.634 -0.083,-1.321 -0.083,-3.716 0.66,-6.442 0.744,-2.725 -0.412,-13.049 -0.66,-14.536 -0.248,-1.486 1.238,-10.323 2.147,-12.388 0.909,-2.065 1.652,-11.067 1.817,-11.893 0.165,-0.825 -1.321,-10.571 -1.321,-10.571 l -1.322,0.496 c 0,0 -0.826,-1.239 -0.991,-1.982 C -36.835,50.627 -36.918,45.672 -37,43.607 -37.083,41.542 -33.366,37 -33.366,37 l 0.33,-8.754 3.469,-0.992 c 0,0 0.743,-3.551 0.991,-4.625 0.248,-1.073 3.221,-13.131 3.138,-14.37 z" /></g><g
           transform="translate(219.7753,178.7397)"
           id="g28"><path
             id="path30"
             style="fill:#f44336;fill-opacity:1;fill-rule:nonzero;stroke:none"
             d="m 0,0 c -0.675,-0.135 -35.37,-5.805 -46.439,-7.56 -11.071,-1.754 -32.941,-5.129 -37.261,-5.129 -4.32,0 -11.34,1.08 -11.34,1.08 0,0 -4.455,-2.566 -7.02,-3.511 -2.565,-0.944 -48.195,-4.185 -50.759,-4.319 -2.566,-0.135 -24.841,-1.486 -36.451,2.16 -11.61,3.644 -24.975,11.205 -30.24,14.58 -1.89,-25.111 6.48,-36.99 19.71,-48.87 13.231,-11.88 41.58,-39.285 45.63,-42.391 4.05,-3.104 38.205,-34.019 39.691,-35.64 1.484,-1.62 20.384,-27.945 21.33,-29.16 0.944,-1.215 13.769,-19.979 13.769,-19.979 0,0 80.325,10.125 84.78,10.8 4.455,0.674 101.385,15.524 106.92,15.929 5.535,0.406 31.455,-0.945 38.88,4.59 0,0 8.776,-1.62 16.2,0 7.425,1.62 53.46,7.29 60.75,8.641 7.29,1.349 15.795,2.699 17.55,7.29 9.316,-1.486 31.725,2.835 38.34,4.319 6.615,1.485 24.436,1.62 33.75,4.05 9.315,2.431 19.845,5.131 22.41,10.53 4.455,-4.319 19.305,-0.135 22.68,0.54 3.375,0.675 43.471,7.965 59.13,12.151 15.66,4.184 36.855,10.259 47.79,12.96 10.935,2.7 37.395,11.474 41.85,12.689 4.455,1.216 12.555,5.806 15.39,11.88 2.835,6.075 2.97,8.37 2.97,8.37 0,0 -5.534,-0.27 -9.449,-0.27 -3.915,0 -79.92,22.951 -96.121,25.111 -16.2,2.159 -87.075,20.25 -92.07,21.599 -4.995,1.35 -76.41,19.98 -76.41,19.98 0,0 -19.845,4.86 -20.79,5.4 -0.944,0.54 -6.21,3.375 -7.02,3.241 -0.81,-0.135 -15.66,-3.781 -16.74,-4.05 C 210.33,16.74 86.806,2.971 72.63,2.16 58.455,1.351 0,0 0,0" /></g><g
           transform="translate(231.9667,201.6723)"
           id="g32"><path
             id="path34"
             style="fill:#ffffff;fill-opacity:1;fill-rule:nonzero;stroke:none"
             d="m 0,0 c -0.083,-2.318 -0.578,-13.056 -0.826,-15.12 -0.248,-2.065 0.218,-26.745 0.218,-26.745 0,0 -1.024,-2.559 -2.327,-6.047 -1.302,-3.489 1.024,-5.815 5.303,-8.001 4.279,-2.187 7.257,-3.07 9.489,-4.559 2.233,-1.488 3.164,-2.604 4.745,-3.814 1.582,-1.209 6.233,-4.465 10.047,-0.558 3.815,3.907 -1.023,9.489 -1.023,9.489 0,0 4.884,-0.046 5.768,-0.279 0.883,-0.232 5.442,-0.372 7.721,-1.21 2.28,-0.837 9.397,-1.209 9.397,-1.209 0,0 5.395,-3.395 7.349,-4.466 1.953,-1.069 9.722,-4.837 12.559,-4.092 2.838,0.744 0.559,2.976 0.559,2.976 0,0 1.441,-0.465 2.418,-0.744 0.977,-0.279 7.768,-0.744 9.117,0.651 1.349,1.396 1.442,3.536 -4.28,5.117 1.256,-0.093 4.001,1.442 4.373,2.047 0.373,0.604 -0.093,2.186 -0.465,2.791 -0.372,0.604 -6.047,0.744 -7.443,1.023 -1.395,0.279 -8.884,1.675 -9.21,1.768 -0.325,0.092 -4.139,2.279 -4.93,2.604 -0.79,0.326 -6.14,0.977 -6.977,1.116 -0.838,0.14 -1.768,0.744 -2.513,1.21 -0.744,0.465 -5.581,1.302 -6.511,1.396 -0.931,0.093 -7.769,2.511 -9.954,2.697 -1.853,0.158 -7.626,2.778 -9.354,3.578 0.199,3.199 0.581,9.223 0.7,10.542 0.166,1.818 1.57,18.087 1.488,19.58 z" /></g><g
           transform="translate(399.2773,200.1928)"
           id="g36"><path
             id="path38"
             style="fill:#ffffff;fill-opacity:1;fill-rule:nonzero;stroke:none"
             d="m 0,0 c 0,0 -2.13,-3.976 -2.896,-4.486 -0.767,-0.512 -8.944,-7.666 -10.05,-8.518 -1.108,-0.851 -0.767,-4.003 -0.682,-5.962 0.085,-1.959 1.362,-7.666 1.362,-7.666 -2.384,-3.918 -1.703,-7.836 -1.703,-7.836 -3.151,-6.218 -5.792,-8.772 -6.473,-9.71 -0.681,-0.936 -1.533,-3.662 -0.511,-4.258 1.022,-0.596 3.492,-0.937 6.643,1.533 3.152,2.47 6.474,7.666 6.474,7.666 0,0 0.852,-0.341 1.703,-0.511 0.852,-0.171 3.152,0.936 5.451,2.214 2.3,1.278 2.3,2.555 5.111,3.918 2.81,1.363 7.41,3.578 9.369,5.622 1.959,2.044 3.662,5.28 4.939,6.984 1.279,1.703 2.812,4.088 2.386,5.281 -0.426,1.192 -0.682,3.917 -0.682,3.917 l 1.874,-0.51 c 0,0 1.789,2.639 2.385,3.236 0.596,0.597 1.193,6.872 1.193,6.872 z" /></g><g
           transform="translate(492.9423,187.768)"
           id="g40"><path
             id="path42"
             style="fill:#ffffff;fill-opacity:1;fill-rule:nonzero;stroke:none"
             d="m 0,0 -0.315,-4.667 c 0,0 -1.023,-2.471 -1.193,-3.918 -0.17,-1.448 0.17,-4.515 1.023,-4.94 0.851,-0.426 3.577,-0.511 4.428,-0.852 0.852,-0.341 3.578,-2.044 4.429,-2.726 0.852,-0.681 3.577,-2.64 5.792,-2.725 2.215,-0.085 4.259,1.618 4.259,3.236 3.492,-1.448 4.94,-0.851 4.94,-0.851 0,0 3.152,-5.621 7.665,-6.133 4.515,-0.511 3.918,1.192 1.703,2.725 -2.213,1.534 -2.384,2.897 -2.384,2.897 0,0 6.643,-5.281 10.561,-5.622 3.918,-0.341 4.771,1.363 4.771,1.363 l -0.682,1.192 1.703,0.341 c 0,0 0.256,1.618 -0.341,2.044 -0.595,0.426 -5.621,6.133 -5.621,6.133 0,0 -3.206,2.104 -4.654,2.444 -1.447,0.341 -12.438,4.388 -12.438,4.388 l -0.113,3.106 z" /></g><g
           transform="translate(375.4326,341.1835)"
           id="g44"><path
             id="path46"
             style="fill:none;stroke:#f44336;stroke-width:0.5;stroke-linecap:butt;stroke-linejoin:miter;stroke-miterlimit:10;stroke-dasharray:none;stroke-opacity:1"
             d="M 0,0 V 6.48 H -6.479" /></g><g
           transform="translate(295.6943,347.6635)"
           id="g48"><path
             id="path50"
             style="fill:none;stroke:#f44336;stroke-width:0.5;stroke-linecap:butt;stroke-linejoin:miter;stroke-miterlimit:10;stroke-dasharray:none;stroke-opacity:1"
             d="M 0,0 H -6.479 V -6.48" /></g><g
           transform="translate(375.4326,282.8627)"
           id="g52"><path
             id="path54"
             style="fill:none;stroke:#f44336;stroke-width:0.5;stroke-linecap:butt;stroke-linejoin:miter;stroke-miterlimit:10;stroke-dasharray:none;stroke-opacity:1"
             d="M 0,0 V -131.569" /></g><g
           transform="translate(295.6943,276.3827)"
           id="g56"><path
             id="path58"
             style="fill:none;stroke:#f44336;stroke-width:0.5;stroke-linecap:butt;stroke-linejoin:miter;stroke-miterlimit:10;stroke-dasharray:none;stroke-opacity:1"
             d="M 0,0 H -6.479 V 6.48" /></g></g></g><text
       id="text66"
       style="font-variant:normal;font-weight:normal;font-stretch:normal;font-size:12.96000004px;font-family:'Material Icons';-inkscape-font-specification:MaterialIcons-Regular;writing-mode:lr-tb;fill:#f44336;fill-opacity:1;fill-rule:nonzero;stroke:none"
       transform="matrix(1,0,0,-1,299.5215,326.3647)"><tspan
         id="tspan60"
         y="0"
         x="0"></tspan><tspan
         id="tspan62"
         y="19.440001"
         x="0">a</tspan><tspan
         id="tspan64"
         y="38.880001"
         x="0">d</tspan></text>
<g
       id="g68"><g
         clip-path="url(#clipPath74)"
         id="g70"><g
           transform="translate(321.6142,290.0629)"
           id="g76"><path
             id="path78"
             style="fill:none;stroke:#f44336;stroke-width:0.5;stroke-linecap:butt;stroke-linejoin:miter;stroke-miterlimit:10;stroke-dasharray:none;stroke-opacity:1"
             d="M 0,0 H 39.093" /></g><g
           transform="translate(321.6142,310.2235)"
           id="g80"><path
             id="path82"
             style="fill:none;stroke:#f44336;stroke-width:0.5;stroke-linecap:butt;stroke-linejoin:miter;stroke-miterlimit:10;stroke-dasharray:none;stroke-opacity:1"
             d="M 0,0 H 33.303" /></g><g
           transform="translate(321.6142,330.3837)"
           id="g84"><path
             id="path86"
             style="fill:none;stroke:#f44336;stroke-width:0.5;stroke-linecap:butt;stroke-linejoin:miter;stroke-miterlimit:10;stroke-dasharray:none;stroke-opacity:1"
             d="M 0,0 H 38.18" /></g><g
           transform="translate(602.4462,115.2367)"
           id="g88"><path
             id="path90"
             style="fill:#ffffff;fill-opacity:1;fill-rule:nonzero;stroke:none"
             d="m 0,0 c 0,-0.695 -1.692,-1.26 -3.779,-1.26 -2.088,0 -3.781,0.565 -3.781,1.26 0,0.696 1.693,1.261 3.781,1.261 C -1.692,1.261 0,0.696 0,0" /></g><g
           transform="translate(71.4462,134.6772)"
           id="g92"><path
             id="path94"
             style="fill:#ffffff;fill-opacity:1;fill-rule:nonzero;stroke:none"
             d="m 0,0 c 0,-0.696 -1.692,-1.26 -3.779,-1.26 -2.088,0 -3.781,0.564 -3.781,1.26 0,0.696 1.693,1.26 3.781,1.26 C -1.692,1.26 0,0.696 0,0" /></g><g
           transform="translate(418.0146,179.183)"
           id="g96"><path
             id="path98"
             style="fill:none;stroke:#ffffff;stroke-width:0.5;stroke-linecap:butt;stroke-linejoin:miter;stroke-miterlimit:10;stroke-dasharray:3;stroke-dashoffset:0;stroke-opacity:1"
             d="M 0,0 C 18.405,-4.97 33.393,-13.895 34.682,-28.618 35.97,-43.342 31.553,-59.538 19.589,-69.845 11.472,-76.839 8.607,-84.596 9.216,-90.757 c 0.513,-5.211 -2.783,-10.044 -7.699,-11.847 -4.27,-1.565 -9.419,-3.232 -14.689,-4.419 -13.067,-2.945 -100.122,-9.018 -114.11,-13.62 -13.988,-4.601 -9.571,-13.62 6.626,-13.62 16.196,0 84.846,7.547 101.594,8.467 12.166,0.668 31.228,-0.702 42.652,-1.714 5.246,-0.465 9.533,-4.374 10.492,-9.552 l 0.231,-1.25" /></g><g
           transform="translate(161.9863,168.8773)"
           id="g100"><path
             id="path102"
             style="fill:none;stroke:#ffffff;stroke-width:0.5;stroke-linecap:butt;stroke-linejoin:miter;stroke-miterlimit:10;stroke-dasharray:3;stroke-dashoffset:0;stroke-opacity:1"
             d="m 0,0 c 30.864,-7 48.791,-24.405 58.008,-43.02 2.264,-4.572 6.731,-7.634 11.82,-8.002 16.439,-1.187 52.18,-3.779 69.853,-5.138 23.399,-1.8 20.88,-13.68 2.88,-15.84 -11.626,-1.396 -38.571,-2.79 -56.196,-3.604 -7.755,-0.357 -13.758,-6.827 -13.653,-14.589 0.006,-0.405 0.009,-0.82 0.009,-1.247 0,-8.352 -6.978,-17.777 -12.412,-23.852 -2.999,-3.352 -3.719,-8.228 -1.708,-12.251 5.192,-10.391 -3.896,-20.336 -15.481,-12.252 -1.937,1.353 -4.218,2.128 -6.579,2.047 -10.219,-0.352 -39.011,0.421 -59.581,18.227 -16.21,14.034 -17.69,29.559 -29.52,41.041 -12.24,11.879 -30.24,16.919 -53.28,4.32" /></g><g
           transform="translate(104.1064,161.6645)"
           id="g104"><path
             id="path106"
             style="fill:none;stroke:#ffffff;stroke-width:0.5;stroke-linecap:butt;stroke-linejoin:miter;stroke-miterlimit:10;stroke-dasharray:3;stroke-dashoffset:0;stroke-opacity:1"
             d="m 0,0 c 13.609,1.955 59.505,-1.147 76.717,-14.425 17.212,-13.278 4.426,-49.342 -39.014,-45.243 -43.44,4.098 -50.489,23.277 -89.503,22.294 -27.274,-0.689 -48.194,24.261 -32.129,40.652" /></g><g
           transform="translate(592.6015,68.8832)"
           id="g108"><path
             id="path110"
             style="fill:none;stroke:#ffffff;stroke-width:0.5;stroke-linecap:butt;stroke-linejoin:miter;stroke-miterlimit:10;stroke-dasharray:3;stroke-dashoffset:0;stroke-opacity:1"
             d="m 0,0 c -30.326,5.901 -58.849,17.212 -81.963,31.802 -23.113,14.589 -42.784,33.768 -21.474,46.719 21.311,12.949 52.621,-1.148 88.356,-3.771 35.735,-2.623 34.752,7.704 22.949,15.409" /></g><g
           id="g112"><g
             id="g114" /><g
             id="g126"><g
               style="opacity:0.14999402"
               id="g124"
               clip-path="url(#clipPath118)"><g
                 id="g122"
                 transform="translate(536.1074,119.2397)"><path
                   id="path120"
                   style="fill:none;stroke:#ffffff;stroke-width:1;stroke-linecap:butt;stroke-linejoin:miter;stroke-miterlimit:10;stroke-dasharray:none;stroke-opacity:1"
                   d="m 0,0 c 2.724,2.707 5.372,5.333 8.02,7.852 39.505,-12.059 112.616,-30.628 138.406,-37.109 1.549,0.411 2.994,0.789 4.348,1.137 -21.233,5.317 -99.019,24.958 -140.946,37.679 9.785,9.096 19.803,16.532 33.84,20.382 11.228,3.081 19.844,5.988 25.824,8.701 -1.157,0.276 -2.319,0.554 -3.483,0.834 C 60.934,37.399 53.628,34.915 43.096,32.024 28.154,27.925 17.73,19.964 7.449,10.284 6.498,10.577 5.56,10.866 4.65,11.15 c -30.117,9.413 -54.06,28.122 -75.185,44.63 -10.726,8.382 -20.892,16.324 -30.381,21.715 -1.035,-0.254 -1.949,-0.477 -2.647,-0.649 l -0.146,-0.272 C -93.881,71.281 -83.187,62.925 -71.865,54.078 -50.595,37.458 -26.487,18.619 4.007,9.09 4.545,8.922 5.099,8.75 5.651,8.579 3.283,6.306 0.91,3.95 -1.522,1.532 -19.245,-16.084 -39.333,-36.05 -82.36,-48.221 c -28.305,-8.007 -89.134,-12.196 -133.549,-15.258 -6.546,-0.45 -12.74,-0.876 -18.431,-1.288 -42.661,-3.083 -56.313,-5.452 -76.411,-37.034 -23.667,33.994 -18.921,74.858 -16.626,92.233 29.061,-8.369 54.652,-11.189 75.909,-11.188 29.411,0 50.534,5.377 61.075,8.839 9.933,3.264 16.362,11.262 17.634,21.942 1.689,14.158 -6.048,36.499 -32.418,55.413 -1.101,-0.117 -2.19,-0.231 -3.265,-0.344 27.225,-18.657 35.198,-40.902 33.54,-54.813 -1.188,-9.957 -6.929,-17.112 -16.165,-20.145 -18.074,-5.937 -67.593,-17.554 -136.914,2.711 -45.063,13.173 -110.181,23.048 -140.438,23.671 -15.158,0.312 -26.357,4.108 -32.391,10.976 -3.542,4.033 -5.251,9.014 -5.103,14.829 -0.706,0.226 -1.416,0.463 -2.132,0.715 -0.317,-6.652 1.561,-12.355 5.612,-16.969 6.444,-7.337 18.19,-11.386 33.97,-11.712 29.925,-0.616 94.122,-10.332 138.986,-23.33 -2.422,-18.287 -7.861,-63.352 20.712,-99.136 0.694,0.106 1.524,0.232 2.494,0.38 -1.086,1.33 -2.14,2.668 -3.134,4.023 19.858,31.518 32.176,33.674 75.221,36.785 5.688,0.41 11.88,0.838 18.424,1.288 44.51,3.068 105.468,7.266 133.989,15.334 C -38.208,-37.976 -17.909,-17.801 0,0 Z" /></g></g></g></g><g
           transform="translate(185.6025,182.0287)"
           id="g128"><path
             id="path130"
             style="fill:#ffffff;fill-opacity:1;fill-rule:nonzero;stroke:none"
             d="m 0,0 c 0,0 0.184,-4.374 0.86,-5.438 1.634,-2.57 4.833,-7.574 5.874,-8.759 1.041,-1.185 6.768,-8.021 7.187,-8.41 0.418,-0.39 3.924,-3.569 4.4,-4.177 0.477,-0.609 2.85,-3.015 3.107,-3.681 0.258,-0.666 0.3,-4.142 0.131,-5.18 -0.169,-1.038 -0.569,-5.01 -0.723,-5.922 -0.153,-0.912 -1.28,-10.85 -1.851,-11.711 -0.571,-0.862 -3.388,-3.143 -4.25,-4.308 -0.861,-1.164 -4.502,-5.673 -5.119,-6.571 -0.617,-0.899 -3.643,-3.154 -4.137,-3.39 -0.496,-0.236 -3.013,-1.791 -4.304,-0.576 -1.291,1.216 -1.172,3.233 -0.637,3.803 -2.917,-2.057 -5.997,-2.317 -6.889,-0.261 -0.892,2.057 -0.584,3.542 1.402,5.247 -3.134,-1.057 -4.321,-0.023 -5.121,1.048 -0.801,1.071 -0.907,3.328 1.42,6.092 2.327,2.763 3.071,4.705 3.143,4.95 0.072,0.245 0.586,2.722 0.99,3.265 0,0 -1.577,3.029 -1.709,3.341 -0.801,-5.193 -2.108,-9.309 -2.678,-10.171 -0.572,-0.862 -2.363,-3.056 -4.194,-2.452 -1.831,0.605 -3.895,2.422 -2.796,7.621 1.1,5.2 2.302,9.16 2.338,9.452 0.035,0.292 0.084,3.122 0.633,4.494 -1.408,1.991 -1.587,4.341 -1.587,4.341 0,0 -3.523,3.393 -4.086,6.763 -0.562,3.37 -0.893,9.336 -0.893,9.336 l -4.404,8.326 z" /></g><g
           transform="translate(184.3857,109.5746)"
           id="g132"><path
             id="path134"
             style="fill:#ffffff;fill-opacity:1;fill-rule:nonzero;stroke:none"
             d="m 0,0 1.261,5.547 h 2.52 L 5.261,0.028 C 3.829,-0.358 2.089,-0.455 0,0 m 8.267,-1.736 c 1.738,0.974 3.102,2.794 3.808,3.881 0.319,0.489 0.214,1.136 -0.239,1.503 C 11.332,4.056 10.591,3.966 10.208,3.444 9.685,2.733 8.817,1.777 7.548,1.009 l -2.422,9.243 -5.294,1.261 -6.387,-33.95 h 1.849 l 4.286,19.496 c 3.703,-0.911 6.458,0.095 6.458,0.095 l 6.4,-20.179 1.427,-0.084 z" /></g></g></g></g></svg>