<?xml version="1.0" encoding="UTF-8"?>

<svg width="60px" height="60px" viewBox="0 0 60 60" version="1.1" xmlns="http://www.w3.org/2000/svg" xmlns:xlink="http://www.w3.org/1999/xlink">
    <path d="M30.0001,1 C14.0001,1 1.0001,14 1.0001,30 C1.0001,46 14.0001,59 30.0001,59 C46.0001,59 59.0001,46 59.0001,30 C59.0001,14 46.0001,1 30.0001,1 M60.0001,30 C60.0001,46.6 46.6001,60 30.0001,60 C13.4001,60 0.0001,46.6 0.0001,30 C0.0001,13.4 13.4001,0 30.0001,0 C46.6001,0 60.0001,13.4 60.0001,30" id="Fill-2" fill-opacity="0.1" fill="#000000"></path>
    <path d="M28.4503,50.2295 L9.7703,31.5495 C8.9153,30.6935 8.9153,29.3065 9.7703,28.4505 L28.4503,9.7705 C29.3053,8.9155 30.6933,8.9155 31.5503,9.7705 L50.2293,28.4505 C51.0853,29.3065 51.0853,30.6935 50.2293,31.5495 L31.5503,50.2295 C30.6933,51.0845 29.3053,51.0845 28.4503,50.2295" id="Fill-3" fill="#FF5722"></path>
    <path d="M26.0001,47.7783 L28.4501,50.2293 C29.3061,51.0853 30.6931,51.0853 31.5501,50.2293 L34.0001,47.7783 L34.0001,30.0003 L26.0001,30.0003 L26.0001,47.7783 Z" id="Fill-4" fill="#D84315"></path>
    <path d="M40.8897,19.1104 C46.9037,25.1254 46.9037,34.8754 40.8897,40.8894 C34.8747,46.9034 25.1247,46.9034 19.1107,40.8894 C13.0967,34.8754 13.0967,25.1254 19.1107,19.1104 C25.1247,13.0964 34.8747,13.0964 40.8897,19.1104" id="Fill-5" fill="#FF7811"></path>
    <path d="M26.0001,44.8594 C28.6191,45.5614 31.3811,45.5614 34.0001,44.8594 L34.0001,30.0004 L26.0001,30.0004 L26.0001,44.8594 Z" id="Fill-6" fill="#E6600B"></path>
    <path d="M36.8585,23.1416 C40.6465,26.9296 40.6475,33.0716 36.8585,36.8596 C33.0715,40.6476 26.9285,40.6476 23.1405,36.8596 C19.3525,33.0716 19.3525,26.9296 23.1405,23.1416 C26.9295,19.3536 33.0705,19.3536 36.8585,23.1416" id="Fill-7" fill="#FF9800"></path>
    <path d="M26.0001,38.8271 C28.5381,39.9761 31.4621,39.9761 34.0001,38.8271 L34.0001,30.0001 L26.0001,30.0001 L26.0001,38.8271 Z" id="Fill-8" fill="#F57C00"></path>
    <path d="M32.8282,27.1719 C34.3902,28.7339 34.3902,31.2669 32.8282,32.8279 C31.2662,34.3909 28.7332,34.3909 27.1722,32.8279 C25.6092,31.2669 25.6092,28.7339 27.1722,27.1719 C28.7332,25.6099 31.2662,25.6099 32.8282,27.1719" id="Fill-9" fill="#424242"></path>
    <path d="M31.4141,28.5859 C32.1951,29.3669 32.1951,30.6329 31.4141,31.4139 C30.6331,32.1949 29.3671,32.1949 28.5861,31.4139 C27.8051,30.6329 27.8051,29.3669 28.5861,28.5859 C29.3671,27.8049 30.6331,27.8049 31.4141,28.5859" id="Fill-10" fill="#FFFFFF"></path>
</svg>
